%FSLAX35Y35*%
%MOIN*%
G04 EasyPC Gerber Version 18.0.9 Build 3640 *
%ADD17R,0.02953X0.15748*%
%ADD16R,0.03150X0.04331*%
%ADD19R,0.05500X0.06000*%
%ADD71R,0.05512X0.05512*%
%ADD20C,0.01500*%
%ADD21C,0.04724*%
%ADD22C,0.04800*%
%ADD15C,0.06000*%
%ADD18C,0.06706*%
%ADD70R,0.06299X0.03543*%
X0Y0D02*
D02*
D15*
X41730Y122470D03*
X175589Y22077D03*
D02*
D16*
X99191Y163219D03*
Y191959D03*
X104191Y163219D03*
Y191959D03*
X109191Y163219D03*
Y191959D03*
X114191Y163219D03*
Y191959D03*
D02*
D17*
X92911Y138219D03*
X96848D03*
X100785D03*
X104722D03*
X108659D03*
X112596D03*
X116533D03*
X120470D03*
X124407D03*
D02*
D18*
X41730Y122470D03*
X175589Y22077D03*
D02*
D19*
X73226Y182931D03*
Y191931D03*
X146061Y177026D03*
Y186026D03*
X163778Y161278D03*
Y170278D03*
D02*
D70*
Y186250D03*
Y192549D03*
D02*
D71*
X19250Y121250D03*
Y131250D03*
Y141250D03*
Y151250D03*
Y161250D03*
Y171250D03*
Y181250D03*
Y191250D03*
D02*
D20*
Y121250D02*
X37715Y102785D01*
X100785*
X19250Y151250D02*
X50825D01*
X53541Y153967*
X79132*
X73226Y182931D02*
Y173652D01*
Y191931D02*
Y191250D01*
X19250*
X92911Y138219D02*
Y128069D01*
X91250Y126407*
X88974*
X79132Y136250*
Y153967*
X96848Y138219D02*
Y125100D01*
X92250Y120502*
X85037*
X73226Y132313*
Y140187*
X99191Y163219D02*
X90943D01*
X99191Y191959D02*
Y183498D01*
X95250Y179557*
X90943*
X99191Y191959D02*
Y191931D01*
X73226*
X99191Y191959D02*
Y197274D01*
X162250*
X163778Y195746*
Y192549*
X100785Y102785D02*
X117250D01*
X124407Y109943*
Y138219*
X100785D02*
Y148494D01*
X99250Y150030*
X89250*
X104191Y191959D02*
Y180089D01*
X110628Y173652*
X104722Y138219D02*
X104250D01*
Y128250*
X100313Y124313*
Y102785*
X100785*
X104722Y138219D02*
Y151998D01*
X102754Y153967*
X90943*
X85037Y159872*
Y165778*
X88974Y169715*
X111250*
X114191Y166774*
Y163219*
X108659Y138219D02*
Y124439D01*
X109191Y191959D02*
Y187522D01*
X111250Y185463*
X120470*
X110628Y173652D02*
X83069D01*
X77163Y167746*
X55510*
X49014Y161250*
X19250*
X110628Y173652D02*
X116533D01*
X120470Y169715*
Y138219*
X112596D02*
X113250D01*
Y121250*
X111250Y119250*
Y115250*
X112596Y138219D02*
Y153967D01*
X108659*
X104191Y158435*
Y163219*
X116533Y138219D02*
Y109250D01*
Y138219D02*
Y157904D01*
X112596*
X109191Y161309*
Y163219*
X124407Y138219D02*
Y149467D01*
X136219Y161278*
X163778*
X128344Y191368D02*
Y191959D01*
X114191*
X146061Y177026D02*
Y177589D01*
X138187*
X128344Y187431*
Y191368*
X163778Y170278D02*
Y186250D01*
Y186026*
X146061*
D02*
D21*
X73226Y140187D03*
Y173652D03*
X89250Y150030D03*
X90943Y179557D03*
X108659Y124439D03*
D02*
D22*
X79132Y153967D03*
X90943Y163219D03*
X111250Y115250D03*
X116533Y109250D03*
X120470Y185463D03*
X128344Y191368D03*
X0Y0D02*
M02*
