%FSLAX35Y35*%
%MOIN*%
G04 EasyPC Gerber Version 18.0.9 Build 3640 *
%ADD10C,0.00100*%
%ADD11C,0.00500*%
X0Y0D02*
D02*
D10*
X121970Y103254D02*
X121345D01*
X121658D02*
Y105129D01*
X121970D02*
X121345D01*
X119939Y103254D02*
Y105129D01*
X118376Y103254*
Y105129*
X117439Y103723D02*
X117283Y103411D01*
X116970Y103254*
X116345*
X116033Y103411*
X115876Y103723*
X116033Y104035*
X116345Y104192*
X116970*
X117283Y104348*
X117439Y104661*
X117283Y104973*
X116970Y105129*
X116345*
X116033Y104973*
X115876Y104661*
X114939Y103254D02*
Y105129D01*
X113376*
X113689Y104192D02*
X114939D01*
Y103254D02*
X113376D01*
X112439D02*
Y105129D01*
X111345*
X111033Y104973*
X110876Y104661*
X111033Y104348*
X111345Y104192*
X112439*
X111345D02*
X110876Y103254D01*
X109158D02*
Y105129D01*
X109939D02*
X108376D01*
X103845Y104192D02*
X103533Y104035D01*
X103376Y103723*
X103533Y103411*
X103845Y103254*
X104939*
Y105129*
X103845*
X103533Y104973*
X103376Y104661*
X103533Y104348*
X103845Y104192*
X104939*
X102439Y103254D02*
X101658Y105129D01*
X100876Y103254*
X102126Y104035D02*
X101189D01*
X99158Y103254D02*
Y105129D01*
X99939D02*
X98376D01*
X96658Y103254D02*
Y105129D01*
X97439D02*
X95876D01*
X94939Y103254D02*
Y105129D01*
X93376*
X93689Y104192D02*
X94939D01*
Y103254D02*
X93376D01*
X92439D02*
Y105129D01*
X91345*
X91033Y104973*
X90876Y104661*
X91033Y104348*
X91345Y104192*
X92439*
X91345D02*
X90876Y103254D01*
X89158D02*
Y104192D01*
X89939Y105129*
X89158Y104192D02*
X88376Y105129D01*
X84939Y103254D02*
Y105129D01*
Y104192D02*
X83376D01*
Y103254D02*
Y105129D01*
X82439Y103254D02*
Y105129D01*
X80876*
X81189Y104192D02*
X82439D01*
Y103254D02*
X80876D01*
X79939D02*
Y105129D01*
X78845*
X78533Y104973*
X78376Y104661*
X78533Y104348*
X78845Y104192*
X79939*
X78845D02*
X78376Y103254D01*
X77439D02*
Y105129D01*
X75876*
X76189Y104192D02*
X77439D01*
Y103254D02*
X75876D01*
X122439Y100254D02*
Y102129D01*
X121345*
X121033Y101973*
X120876Y101661*
X121033Y101348*
X121345Y101192*
X122439*
X121345D02*
X120876Y100254D01*
X119939Y100723D02*
X119783Y100411D01*
X119470Y100254*
X118845*
X118533Y100411*
X118376Y100723*
X118533Y101035*
X118845Y101192*
X119470*
X119783Y101348*
X119939Y101661*
X119783Y101973*
X119470Y102129*
X118845*
X118533Y101973*
X118376Y101661*
X117439Y102129D02*
X116658Y100254D01*
X115876Y102129*
X114939Y100254D02*
Y102129D01*
X113845*
X113533Y101973*
X113376Y101661*
X113533Y101348*
X113845Y101192*
X114939*
X109939Y102129D02*
X109783Y100254D01*
X109158Y101192*
X108533Y100254*
X108376Y102129*
X107439Y100254D02*
Y102129D01*
X105876*
X106189Y101192D02*
X107439D01*
Y100254D02*
X105876D01*
X104939D02*
Y102129D01*
X104002*
X103689Y101973*
X103533Y101817*
X103376Y101504*
Y100879*
X103533Y100567*
X103689Y100411*
X104002Y100254*
X104939*
X102439D02*
Y102129D01*
X101502*
X101189Y101973*
X101033Y101817*
X100876Y101504*
Y100879*
X101033Y100567*
X101189Y100411*
X101502Y100254*
X102439*
X99470D02*
X98845D01*
X99158D02*
Y102129D01*
X99470D02*
X98845D01*
X97439Y100254D02*
Y102129D01*
X95876Y100254*
Y102129*
X93845Y101035D02*
X93376D01*
Y100879*
X93533Y100567*
X93689Y100411*
X94002Y100254*
X94314*
X94626Y100411*
X94783Y100567*
X94939Y100879*
Y101504*
X94783Y101817*
X94626Y101973*
X94314Y102129*
X94002*
X93689Y101973*
X93533Y101817*
X93376Y101504*
X91033Y100411D02*
X91345Y100254D01*
X91970*
X92283Y100411*
X92439Y100723*
Y101661*
X92283Y101973*
X91970Y102129*
X91502*
X91189Y101973*
X91033Y101661*
Y100879*
X91189Y100723*
X91345Y100879*
Y101504*
X91502Y101661*
X91970*
X92126Y101504*
Y100879*
X91970Y100723*
X91502*
X91345Y100879*
X88845Y101192D02*
X88533Y101035D01*
X88376Y100723*
X88533Y100411*
X88845Y100254*
X89939*
Y102129*
X88845*
X88533Y101973*
X88376Y101661*
X88533Y101348*
X88845Y101192*
X89939*
X87439Y102129D02*
Y100254D01*
X85876*
X84939Y102129D02*
Y100723D01*
X84783Y100411*
X84470Y100254*
X83845*
X83533Y100411*
X83376Y100723*
Y102129*
X82439Y100254D02*
Y102129D01*
X80876Y100254*
Y102129*
X78845Y101035D02*
X78376D01*
Y100879*
X78533Y100567*
X78689Y100411*
X79002Y100254*
X79314*
X79626Y100411*
X79783Y100567*
X79939Y100879*
Y101504*
X79783Y101817*
X79626Y101973*
X79314Y102129*
X79002*
X78689Y101973*
X78533Y101817*
X78376Y101504*
X77439Y102129D02*
Y100254D01*
X75876*
X74939D02*
Y102129D01*
X73376*
X73689Y101192D02*
X74939D01*
Y100254D02*
X73376D01*
X71658D02*
Y102129D01*
X72439D02*
X70876D01*
X69939Y100879D02*
Y101504D01*
X69783Y101817*
X69626Y101973*
X69314Y102129*
X69002*
X68689Y101973*
X68533Y101817*
X68376Y101504*
Y100879*
X68533Y100567*
X68689Y100411*
X69002Y100254*
X69314*
X69626Y100411*
X69783Y100567*
X69939Y100879*
X67439Y100254D02*
Y102129D01*
X65876Y100254*
Y102129*
X64783Y100254D02*
X64626Y100411D01*
X64783Y100567*
X64939Y100411*
X64783Y100254*
X60876Y100567D02*
X61033Y100411D01*
X61345Y100254*
X61814*
X62126Y100411*
X62283Y100567*
X62439Y100879*
Y101504*
X62283Y101817*
X62126Y101973*
X61814Y102129*
X61345*
X61033Y101973*
X60876Y101817*
X59939Y100879D02*
Y101504D01*
X59783Y101817*
X59626Y101973*
X59314Y102129*
X59002*
X58689Y101973*
X58533Y101817*
X58376Y101504*
Y100879*
X58533Y100567*
X58689Y100411*
X59002Y100254*
X59314*
X59626Y100411*
X59783Y100567*
X59939Y100879*
X57439Y100254D02*
Y102129D01*
X56658Y101192*
X55876Y102129*
Y100254*
D02*
D11*
X176179Y92884D02*
X52951D01*
Y12884*
X176179*
Y92884*
X0Y0D02*
M02*
