%FSLAX35Y35*%
%MOIN*%
G04 EasyPC Gerber Version 18.0.9 Build 3640 *
%ADD76R,0.06000X0.15748*%
%ADD77R,0.20079X0.20079*%
%ADD71R,0.05512X0.05512*%
%ADD11C,0.00500*%
%ADD75C,0.01000*%
%ADD20C,0.01500*%
%ADD79C,0.02500*%
%ADD21C,0.04724*%
%ADD22C,0.04800*%
%ADD80C,0.05000*%
%ADD15C,0.06000*%
%ADD18C,0.06706*%
%ADD78C,0.39370*%
X0Y0D02*
D02*
D11*
X6829Y8829D02*
X198679D01*
Y200679*
X6829*
Y8829*
X15244Y157244D02*
Y165256D01*
X23256*
Y157244*
X15244*
Y187244D02*
Y195256D01*
X23256*
Y187244*
X15244*
X16750Y117244D02*
X15244D01*
Y125256*
X22177*
X20196Y127244*
X15244*
Y135256*
X23256*
Y130286*
X42067Y111407*
X113589*
G75*
G02X120183Y109250I2944J-2157*
G01*
G75*
G02X113589Y107093I-3650*
G01*
X41171*
G75*
G02X39643Y107727J2157*
G01*
X23256Y124173*
Y117244*
X21750*
Y98526*
X55630Y64646*
X75461*
Y42067*
X52882*
Y60323*
X17482Y95722*
G75*
G02X16750Y97490I1768J1768*
G01*
Y117244*
X20428Y145256D02*
X22416Y147244D01*
X15244*
Y155256*
X23256*
Y148084*
X29568Y154396*
G75*
G02X30982Y154982I1414J-1414*
G01*
X40746*
G75*
G02X42160Y154396J-2000*
G01*
X79307Y117250*
X108197*
G75*
G02X114900Y115250I3053J-2000*
G01*
G75*
G02X108197Y113250I-3650*
G01*
X78478*
G75*
G02X77064Y113836J2000*
G01*
X39918Y150982*
X31811*
X29421Y148593*
X31888*
G75*
G02X34053Y147343J-2500*
G01*
X38106*
Y129094*
X34053*
G75*
G02X31888Y127844I-2165J1250*
G01*
X27951*
G75*
G02X25451Y130344J2500*
G01*
Y144622*
X23256Y142428*
Y137244*
X15244*
Y145256*
X20428*
X23256Y169250D02*
Y167244D01*
X15244*
Y175256*
X23256*
Y173250*
X44406*
X58033Y186877*
G75*
G02X59447Y187463I1414J-1414*
G01*
X117417*
G75*
G02X124120Y185463I3053J-2000*
G01*
G75*
G02X117417Y183463I-3650*
G01*
X60275*
X46648Y169836*
G75*
G02X45234Y169250I-1414J1414*
G01*
X23256*
Y179130D02*
Y177244D01*
X15244*
Y185256*
X23256*
Y183446*
X34915Y183556*
X44133Y192885*
G75*
G02X45667Y193526I1535J-1517*
G01*
X125400*
G75*
G02X131994Y191368I2944J-2157*
G01*
G75*
G02X125400Y189211I-3650*
G01*
X46569*
X37359Y179891*
G75*
G02X35845Y179250I-1535J1517*
G01*
X23256Y179130*
X34053Y50354D02*
G75*
G02X31888Y49104I-2165J1250D01*
G01*
X27951*
G75*
G02X25451Y51604J2500*
G01*
Y67352*
G75*
G02X27951Y69852I2500*
G01*
X31888*
G75*
G02X34053Y68602J-2500*
G01*
X39287*
Y50354*
X34053*
X37128Y122470D02*
G75*
G02X46333I4603D01*
G01*
G75*
G02X37128I-4603*
G01*
X71226Y143195D02*
Y170644D01*
G75*
G02X69614Y173652I2000J3008*
G01*
G75*
G02X76839I3612*
G01*
G75*
G02X75226Y170644I-3612*
G01*
Y143195*
G75*
G02X76839Y140187I-2000J-3008*
G01*
G75*
G02X69614I-3612*
G01*
G75*
G02X71226Y143195I3612*
G01*
X82185Y151967D02*
G75*
G02X75482Y153967I-3053J2000D01*
G01*
G75*
G02X82185Y155967I3650*
G01*
X82241*
X87740Y161466*
G75*
G02X87292Y163219I3203J1752*
G01*
G75*
G02X94594I3651*
G01*
G75*
G02X91549Y159619I-3651*
G01*
X84483Y152552*
G75*
G02X83069Y151967I-1414J1414*
G01*
X82185*
X85638Y150030D02*
G75*
G02X92862I3612D01*
G01*
G75*
G02X85638I-3612*
G01*
X87331Y179557D02*
G75*
G02X94555I3612D01*
G01*
G75*
G02X87331I-3612*
G01*
X93630Y53356D02*
G75*
G02X135500I20935D01*
G01*
G75*
G02X93630I-20935*
G01*
X105047Y124439D02*
G75*
G02X112272I3612D01*
G01*
G75*
G02X105047I-3612*
G01*
X153669Y42067D02*
Y64646D01*
X176248*
Y42067*
X153669*
X170986Y22077D02*
G75*
G02X180191I4603D01*
G01*
G75*
G02X170986I-4603*
G01*
X183266Y50354D02*
X178425D01*
Y68602*
X183266*
G75*
G02X185431Y69852I2165J-1250*
G01*
X189368*
G75*
G02X191868Y67352J-2500*
G01*
Y51604*
G75*
G02X189368Y49104I-2500*
G01*
X185431*
G75*
G02X183266Y50354J2500*
G01*
Y129094D02*
X178031D01*
Y147343*
X183266*
G75*
G02X185431Y148593I2165J-1250*
G01*
X189368*
G75*
G02X191868Y146093J-2500*
G01*
Y130344*
G75*
G02X189368Y127844I-2500*
G01*
X185431*
G75*
G02X183266Y129094J2500*
G01*
X6829Y161250D02*
G36*
Y150030D01*
X15244*
Y155256*
X23256*
Y148084*
X29568Y154396*
G75*
G02X30982Y154982I1414J-1414*
G01*
X40746*
G75*
G02X42160Y154396J-2000*
G01*
X46527Y150030*
X71226*
Y161250*
X23256*
Y157244*
X15244*
Y161250*
X6829*
G37*
X15244D02*
G36*
Y165256D01*
X23256*
Y161250*
X71226*
Y170644*
G75*
G02X69614Y173652I2000J3008*
G01*
G75*
G02X76839I3612*
G01*
G75*
G02X75226Y170644I-3612*
G01*
Y161250*
X87524*
X87740Y161466*
G75*
G02X87292Y163219I3203J1752*
G01*
G75*
G02X94594I3651*
G01*
G75*
G02X94017Y161250I-3651J0*
G01*
X198679*
Y178178*
X94281*
G75*
G02X87604I-3339J1379*
G01*
X54991*
X46648Y169836*
G75*
G02X45234Y169250I-1414J1414*
G01*
X23256*
Y167244*
X15244*
Y175256*
X23256*
Y173250*
X44406*
X49334Y178178*
X23256*
Y177244*
X15244*
Y178178*
X6829*
Y161250*
X15244*
G37*
X75226D02*
G36*
Y150030D01*
X85638*
G75*
G02X92862I3612*
G01*
X198679*
Y161250*
X94017*
G75*
G02X91549Y159619I-3074J1969*
G01*
X84483Y152552*
G75*
G02X83069Y151967I-1414J1414*
G01*
X82185*
G75*
G02X75482Y153967I-3053J2000*
G01*
G75*
G02X82185Y155967I3650*
G01*
X82241*
X87524Y161250*
X75226*
G37*
X6829Y191250D02*
G36*
Y178178D01*
X15244*
Y185256*
X23256*
Y183446*
X34915Y183556*
X42517Y191250*
X23256*
Y187244*
X15244*
Y191250*
X6829*
G37*
X15244D02*
G36*
Y195256D01*
X23256*
Y191250*
X42517*
X44133Y192885*
G75*
G02X45667Y193526I1535J-1517*
G01*
X125400*
G75*
G02X131994Y191368I2944J-2157*
G01*
G75*
G02X131993Y191250I-3651J2*
G01*
X198679*
Y200679*
X6829*
Y191250*
X15244*
G37*
X131993D02*
G36*
G75*
G02X125400Y189211I-3648J118D01*
G01*
X46569*
X37359Y179891*
G75*
G02X35845Y179250I-1535J1517*
G01*
X23256Y179130*
Y178178*
X49334*
X58033Y186877*
G75*
G02X59447Y187463I1414J-1414*
G01*
X117417*
G75*
G02X124120Y185463I3053J-2000*
G01*
G75*
G02X117417Y183463I-3650*
G01*
X60275*
X54991Y178178*
X87604*
G75*
G02X87331Y179557I3339J1379*
G01*
G75*
G02X94555I3612*
G01*
G75*
G02X94281Y178178I-3612J0*
G01*
X198679*
Y191250*
X131993*
G37*
X6829Y88661D02*
G36*
Y59478D01*
X25451*
Y67352*
G75*
G02X27951Y69852I2500*
G01*
X31888*
G75*
G02X34053Y68602J-2500*
G01*
X39287*
Y59478*
X52882*
Y60323*
X24543Y88661*
X6829*
G37*
X24543D02*
G36*
X17482Y95722D01*
G75*
G02X16750Y97490I1768J1768*
G01*
Y117244*
X15244*
Y122470*
X6829*
Y88661*
X24543*
G37*
X31614D02*
G36*
X55630Y64646D01*
X75461*
Y59478*
X94545*
G75*
G02X134585I20020J-6122*
G01*
X153669*
Y64646*
X176248*
Y59478*
X178425*
Y68602*
X183266*
G75*
G02X185431Y69852I2165J-1250*
G01*
X189368*
G75*
G02X191868Y67352J-2500*
G01*
Y59478*
X198679*
Y88661*
X31614*
G37*
X198679D02*
G36*
Y122470D01*
X111688*
G75*
G02X105631I-3029J1969*
G01*
X74086*
X79307Y117250*
X108197*
G75*
G02X114900Y115250I3053J-2000*
G01*
G75*
G02X108197Y113250I-3650*
G01*
X78478*
G75*
G02X77064Y113836J2000*
G01*
X68430Y122470*
X46333*
G75*
G02X37128I-4603*
G01*
X31044*
X42067Y111407*
X113589*
G75*
G02X120183Y109250I2944J-2157*
G01*
G75*
G02X113589Y107093I-3650*
G01*
X41171*
G75*
G02X39643Y107727J2157*
G01*
X23256Y124173*
Y117244*
X21750*
Y98526*
X31614Y88661*
X198679*
G37*
X6829Y133428D02*
G36*
Y122470D01*
X15244*
Y125256*
X22177*
X20196Y127244*
X15244*
Y133428*
X6829*
G37*
X15244D02*
G36*
Y135256D01*
X23256*
Y133428*
X25451*
Y144622*
X23256Y142428*
Y137244*
X15244*
Y145256*
X20428*
X22416Y147244*
X15244*
Y150030*
X6829*
Y133428*
X15244*
G37*
X23256D02*
G36*
Y130286D01*
X31044Y122470*
X37128*
G75*
G02X46333I4603*
G01*
X68430*
X39918Y150982*
X31811*
X29421Y148593*
X31888*
G75*
G02X34053Y147343J-2500*
G01*
X38106*
Y129094*
X34053*
G75*
G02X31888Y127844I-2165J1250*
G01*
X27951*
G75*
G02X25451Y130344J2500*
G01*
Y133428*
X23256*
G37*
X63129D02*
G36*
X74086Y122470D01*
X105631*
G75*
G02X105047Y124439I3029J1969*
G01*
G75*
G02X112272I3612*
G01*
G75*
G02X111688Y122470I-3612*
G01*
X198679*
Y133428*
X191868*
Y130344*
G75*
G02X189368Y127844I-2500*
G01*
X185431*
G75*
G02X183266Y129094J2500*
G01*
X178031*
Y133428*
X63129*
G37*
X178031D02*
G36*
Y147343D01*
X183266*
G75*
G02X185431Y148593I2165J-1250*
G01*
X189368*
G75*
G02X191868Y146093J-2500*
G01*
Y133428*
X198679*
Y150030*
X92862*
G75*
G02X85638I-3612*
G01*
X75226*
Y143195*
G75*
G02X76839Y140187I-2000J-3008*
G01*
G75*
G02X69614I-3612*
G01*
G75*
G02X71226Y143195I3612*
G01*
Y150030*
X46527*
X63129Y133428*
X178031*
G37*
X6829Y59478D02*
G36*
Y22077D01*
X170986*
G75*
G02X180191I4603*
G01*
X198679*
Y59478*
X191868*
Y51604*
G75*
G02X189368Y49104I-2500*
G01*
X185431*
G75*
G02X183266Y50354J2500*
G01*
X178425*
Y59478*
X176248*
Y42067*
X153669*
Y59478*
X134585*
G75*
G02X135500Y53356I-20020J-6122*
G01*
G75*
G02X93630I-20935*
G01*
G75*
G02X94545Y59478I20934J1*
G01*
X75461*
Y42067*
X52882*
Y59478*
X39287*
Y50354*
X34053*
G75*
G02X31888Y49104I-2165J1250*
G01*
X27951*
G75*
G02X25451Y51604J2500*
G01*
Y59478*
X6829*
G37*
Y22077D02*
G36*
Y8829D01*
X198679*
Y22077*
X180191*
G75*
G02X170986I-4603*
G01*
X6829*
G37*
D02*
D15*
X41730Y122470D03*
X175589Y22077D03*
D02*
D18*
X41730Y122470D03*
X175589Y22077D03*
D02*
D71*
X19250Y121250D03*
Y131250D03*
Y141250D03*
Y151250D03*
Y161250D03*
Y171250D03*
Y181250D03*
Y191250D03*
D02*
D20*
Y131250D02*
Y131171D01*
X41171Y109250*
X116533*
X19250Y141250D02*
X30982Y152982D01*
X40746*
X78478Y115250*
X111250*
X73226Y173652D02*
Y140187D01*
X89250Y150030D02*
X108659D01*
X90943Y163219D02*
Y161841D01*
X83069Y153967*
X79132*
X90943Y179557D02*
X98817D01*
X108659Y169715*
Y150030*
Y124439*
X120470Y185463D02*
X59447D01*
X45234Y171250*
X19250*
X128344Y191368D02*
Y191250D01*
X45667*
X35825Y181407*
X19250Y181250*
D02*
D21*
X73226Y140187D03*
Y173652D03*
X89250Y150030D03*
X90943Y179557D03*
X108659Y124439D03*
D02*
D22*
X79132Y153967D03*
X90943Y163219D03*
X111250Y115250D03*
X116533Y109250D03*
X120470Y185463D03*
X128344Y191368D03*
D02*
D75*
X16994Y191250D02*
X14994D01*
X19250Y188994D02*
Y186994D01*
Y193506D02*
Y195506D01*
X21506Y191250D02*
X23506D01*
X87388Y150030D02*
X85388D01*
X89250Y148167D02*
Y146167D01*
Y151892D02*
Y153892D01*
X89626Y178240D02*
X88212Y176826D01*
X89626Y180874D02*
X88212Y182288D01*
X91112Y150030D02*
X93112D01*
X92260Y178240D02*
X93674Y176826D01*
X92260Y180874D02*
X93674Y182288D01*
X95380Y53356D02*
X93380D01*
X106797Y124439D02*
X104797D01*
X108659Y122577D02*
Y120577D01*
Y126301D02*
Y128301D01*
X110522Y124439D02*
X112522D01*
X114565Y34171D02*
Y32171D01*
Y72541D02*
Y74541D01*
X133750Y53356D02*
X135750D01*
D02*
D76*
X33856Y138219D03*
X35037Y59478D03*
X182281Y138219D03*
X182675Y59478D03*
D02*
D77*
X64171Y53356D03*
X164959D03*
D02*
D78*
X114565D03*
D02*
D79*
X19250Y121250D02*
Y97490D01*
X63384Y53356*
X64171*
D02*
D80*
X108659Y150030D02*
X122439D01*
X132281Y140187*
Y71073*
X114565Y53356*
X0Y0D02*
M02*
